<svg id="_54719" data-name="54719" xmlns="http://www.w3.org/2000/svg" width="17.428" height="17.447" viewBox="0 0 17.428 17.447">
  <g id="_x34__17_" transform="translate(0 0)">
    <g id="Group_8814" data-name="Group 8814" transform="translate(0 0)">
      <path id="Path_10533" data-name="Path 10533" d="M16.885,6.351,8.018,15.12a3.792,3.792,0,0,1-5.321,0,3.691,3.691,0,0,1,0-5.261l7.981-7.892a2.528,2.528,0,0,1,3.547,0,2.461,2.461,0,0,1,0,3.508L6.244,13.366a1.264,1.264,0,0,1-1.774,0,1.231,1.231,0,0,1,0-1.754L11.564,4.6l-.887-.877L3.584,10.736a2.461,2.461,0,0,0,0,3.508,2.528,2.528,0,0,0,3.547,0l7.981-7.892a3.691,3.691,0,0,0,0-5.261,3.792,3.792,0,0,0-5.321,0L1.367,9.421l.031.03A4.918,4.918,0,0,0,1.81,16a5.055,5.055,0,0,0,6.62.408l.031.031,9.31-9.207Z" transform="translate(-0.343 -0.001)"/>
    </g>
  </g>
</svg>
