<svg id="_786257" data-name="786257" xmlns="http://www.w3.org/2000/svg" width="12.869" height="18.754" viewBox="0 0 12.869 18.754">
  <g id="Group_3061" data-name="Group 3061" transform="translate(0 8.239)">
    <g id="Group_3060" data-name="Group 3060">
      <path id="Path_2138" data-name="Path 2138" d="M93.2,225.483a.549.549,0,1,0-1.1,0,5.336,5.336,0,1,1-10.671,0,.549.549,0,1,0-1.1,0,6.443,6.443,0,0,0,5.885,6.411v2.456H85a.549.549,0,0,0,0,1.1h3.531a.549.549,0,0,0,0-1.1H87.318v-2.456A6.443,6.443,0,0,0,93.2,225.483Z" transform="translate(-80.334 -224.934)"/>
    </g>
  </g>
  <g id="Group_3063" data-name="Group 3063" transform="translate(3.531 0)">
    <g id="Group_3062" data-name="Group 3062">
      <path id="Path_2139" data-name="Path 2139" d="M179.637,0a2.907,2.907,0,0,0-2.9,2.9V8.788a2.9,2.9,0,0,0,5.807,0V2.9A2.907,2.907,0,0,0,179.637,0Zm1.8,8.788a1.8,1.8,0,1,1-3.609,0V2.9a1.8,1.8,0,1,1,3.609,0Z" transform="translate(-176.734)"/>
    </g>
  </g>
</svg>
